<svg width="400" height="250" viewBox="0 0 400 250" xmlns="http://www.w3.org/2000/svg">
  <defs>
    <linearGradient id="skyGradient2" x1="0%" y1="0%" x2="0%" y2="100%">
      <stop offset="0%" style="stop-color:#FF7E67;stop-opacity:1" />
      <stop offset="50%" style="stop-color:#FFAAA5;stop-opacity:1" />
      <stop offset="100%" style="stop-color:#FFE0B2;stop-opacity:1" />
    </linearGradient>
    <linearGradient id="building1" x1="0%" y1="0%" x2="0%" y2="100%">
      <stop offset="0%" style="stop-color:#2D3748;stop-opacity:1" />
      <stop offset="100%" style="stop-color:#1A202C;stop-opacity:1" />
    </linearGradient>
    <linearGradient id="building2" x1="0%" y1="0%" x2="0%" y2="100%">
      <stop offset="0%" style="stop-color:#4A5568;stop-opacity:1" />
      <stop offset="100%" style="stop-color:#2D3748;stop-opacity:1" />
    </linearGradient>
    <linearGradient id="building3" x1="0%" y1="0%" x2="0%" y2="100%">
      <stop offset="0%" style="stop-color:#1A365D;stop-opacity:1" />
      <stop offset="100%" style="stop-color:#2C5282;stop-opacity:1" />
    </linearGradient>
  </defs>
  
  <!-- Sunset sky background -->
  <rect width="400" height="250" fill="url(#skyGradient2)"/>
  
  <!-- Sun setting -->
  <circle cx="80" cy="80" r="30" fill="#FF6B35" opacity="0.9"/>
  <circle cx="80" cy="80" r="25" fill="#FFD23F" opacity="0.7"/>
  
  <!-- City skyline silhouette style -->
  
  <!-- Far background buildings (lighter) -->
  <rect x="10" y="160" width="25" height="90" fill="#4A5568" opacity="0.6" rx="1"/>
  <rect x="40" y="140" width="30" height="110" fill="#4A5568" opacity="0.6" rx="1"/>
  <rect x="75" y="120" width="35" height="130" fill="#4A5568" opacity="0.6" rx="1"/>
  
  <!-- Mid-ground buildings -->
  <rect x="115" y="100" width="40" height="150" fill="url(#building2)" rx="2"/>
  <rect x="160" y="70" width="45" height="180" fill="url(#building1)" rx="2"/>
  <rect x="210" y="50" width="50" height="200" fill="url(#building3)" rx="2"/>
  <rect x="265" y="80" width="42" height="170" fill="url(#building2)" rx="2"/>
  
  <!-- Foreground buildings (darkest) -->
  <rect x="312" y="60" width="48" height="190" fill="url(#building1)" rx="2"/>
  <rect x="365" y="90" width="35" height="160" fill="url(#building2)" rx="2"/>
  
  <!-- Building details and windows for mid/foreground buildings -->
  
  <!-- Building lights/windows -->
  <!-- Building at x=160 -->
  <rect x="168" y="85" width="8" height="10" fill="#FFF176" opacity="0.9"/>
  <rect x="180" y="85" width="8" height="10" fill="#FFF176" opacity="0.7"/>
  <rect x="192" y="85" width="8" height="10" fill="#FFF176" opacity="0.8"/>
  <rect x="168" y="110" width="8" height="10" fill="#FFF176" opacity="0.8"/>
  <rect x="180" y="110" width="8" height="10" fill="#FFF176" opacity="0.9"/>
  <rect x="192" y="110" width="8" height="10" fill="#FFF176" opacity="0.6"/>
  <rect x="168" y="135" width="8" height="10" fill="#FFF176" opacity="0.7"/>
  <rect x="180" y="135" width="8" height="10" fill="#FFF176" opacity="0.8"/>
  <rect x="192" y="135" width="8" height="10" fill="#FFF176" opacity="0.9"/>
  
  <!-- Building at x=210 (tallest) -->
  <rect x="220" y="70" width="9" height="11" fill="#FFF176" opacity="0.9"/>
  <rect x="235" y="70" width="9" height="11" fill="#FFF176" opacity="0.8"/>
  <rect x="250" y="70" width="9" height="11" fill="#FFF176" opacity="0.7"/>
  <rect x="220" y="95" width="9" height="11" fill="#FFF176" opacity="0.8"/>
  <rect x="235" y="95" width="9" height="11" fill="#FFF176" opacity="0.9"/>
  <rect x="250" y="95" width="9" height="11" fill="#FFF176" opacity="0.8"/>
  <rect x="220" y="120" width="9" height="11" fill="#FFF176" opacity="0.7"/>
  <rect x="235" y="120" width="9" height="11" fill="#FFF176" opacity="0.8"/>
  <rect x="250" y="120" width="9" height="11" fill="#FFF176" opacity="0.9"/>
  <rect x="220" y="145" width="9" height="11" fill="#FFF176" opacity="0.8"/>
  <rect x="235" y="145" width="9" height="11" fill="#FFF176" opacity="0.7"/>
  <rect x="250" y="145" width="9" height="11" fill="#FFF176" opacity="0.8"/>
  
  <!-- Building at x=312 -->
  <rect x="322" y="80" width="8" height="10" fill="#FFF176" opacity="0.9"/>
  <rect x="335" y="80" width="8" height="10" fill="#FFF176" opacity="0.8"/>
  <rect x="348" y="80" width="8" height="10" fill="#FFF176" opacity="0.7"/>
  <rect x="322" y="105" width="8" height="10" fill="#FFF176" opacity="0.8"/>
  <rect x="335" y="105" width="8" height="10" fill="#FFF176" opacity="0.9"/>
  <rect x="348" y="105" width="8" height="10" fill="#FFF176" opacity="0.8"/>
  <rect x="322" y="130" width="8" height="10" fill="#FFF176" opacity="0.7"/>
  <rect x="335" y="130" width="8" height="10" fill="#FFF176" opacity="0.8"/>
  
  <!-- Street/ground -->
  <rect x="0" y="240" width="400" height="10" fill="#1A202C"/>
  <rect x="0" y="246" width="400" height="1" fill="#FFF" opacity="0.2"/>
</svg>
